<svg width="100" height="100" viewBox="0 0 100 100" fill="none" xmlns="http://www.w3.org/2000/svg">
<rect width="100" height="100" rx="20" fill="#3B82F6"/>
<path d="M49.9999 25C48.0999 27.6 48.3999 30.9 50.1999 33.3C52.0999 35.8 54.9999 37.1 57.9999 37.5C59.9999 37.7 62.1999 37.9 63.5999 39.2C65.0999 40.5 65.5999 42.6 65.4999 44.5C65.3999 46.4 64.4999 48.2 63.1999 49.5C61.8999 50.8 60.0999 51.5 58.1999 51.6C55.4999 51.7 52.8999 51.6 50.4999 51.9C48.0999 52.2 45.9999 53.1 44.1999 54.5C42.4999 55.9 41.2999 57.9 40.7999 60.1C40.2999 62.3 40.5999 64.7 41.6999 66.7C42.8999 68.8 44.7999 70.4 46.9999 71.3C49.2999 72.2 51.8999 72.3 54.1999 71.6C56.5999 70.9 58.7999 69.4 60.1999 67.5C61.5999 65.5 62.1999 63.1 61.9999 60.8C61.7999 58.5 60.7999 56.4 59.2999 54.8C57.7999 53.2 55.7999 52.2 53.5999 51.9C51.2999 51.6 49.1999 52 47.3999 53C45.5999 54 44.2999 55.5 43.7999 57.4C43.2999 59.3 43.6999 61.4 44.7999 63C45.8999 64.6 47.6999 65.7 49.5999 66C51.4999 66.3 53.4999 65.8 55.0999 64.8M49.9999 25C47.0999 25.2 44.4999 26.2 42.4999 27.9C40.4999 29.6 39.2999 31.9 38.9999 34.5C38.6999 37.1 39.3999 39.7 40.7999 41.9C42.1999 44.1 44.2999 45.7 46.6999 46.5C49.0999 47.3 51.6999 47.3 54.0999 46.4C56.4999 45.5 58.5999 43.8 60.0999 41.7C61.4999 39.6 62.1999 37.1 62.0999 34.6C61.9999 32.1 60.9999 29.8 59.4999 27.9C57.9999 26 55.9999 24.7 53.5999 24.2C52.2999 23.9 51.0999 24.2 49.9999 25M35.1999 40.5C33.8999 41.8 33.1999 43.6 33.2999 45.4C33.3999 47.3 34.2999 49.1 35.6999 50.3C37.0999 51.5 38.9999 52.1 40.8999 51.9M55.0999 64.8C56.6999 65.8 57.8999 67.4 58.4999 69.2" stroke="white" stroke-width="3" stroke-linecap="round" stroke-linejoin="round"/>
</svg>